<?xml version="1.0" encoding="UTF-8"?>
<svg id="_레이어_1" data-name="레이어_1" xmlns="http://www.w3.org/2000/svg" version="1.1" viewBox="0 0 317 70">
  <!-- Generator: Adobe Illustrator 30.2.1, SVG Export Plug-In . SVG Version: 2.1.1 Build 1)  -->
  <defs>
    <style>
      .st0 {
        fill: #531da6;
      }

      .st1 {
        fill: #1e1e1e;
      }
    </style>
  </defs>
  <path class="st1" d="M292.66,5.06c0,1.3.25,2.53.75,3.69.51,1.16,1.29,2.2,2.34,3.11,1.05.9,2.36,1.59,3.95,2.08l-2.29,3.45c-1.62-.55-3.01-1.32-4.17-2.32-1.16-1.01-2.08-2.22-2.77-3.6-.69,1.61-1.66,3-2.89,4.17-1.23,1.16-2.72,2.04-4.46,2.65l-2.36-3.49c1.68-.56,3.08-1.36,4.19-2.39,1.1-1.05,1.92-2.23,2.44-3.55.52-1.32.79-2.71.79-4.17V1.88h4.48v3.18ZM305.92,7.41h4.2v3.66h-4.2v7.52h-4.41V.21h4.41v7.21ZM295.7,19.31c2.16,0,4.04.24,5.62.72,1.59.47,2.82,1.16,3.67,2.07.86.9,1.3,1.98,1.3,3.23s-.43,2.29-1.28,3.19c-.85.9-2.08,1.59-3.67,2.07s-3.47.72-5.64.72-4.04-.24-5.64-.72-2.82-1.17-3.69-2.07c-.87-.9-1.3-1.96-1.3-3.19s.43-2.33,1.3-3.23c.87-.91,2.1-1.6,3.69-2.07,1.59-.48,3.47-.72,5.64-.72ZM295.7,22.72c-4.15,0-6.22.87-6.22,2.6,0,.84.52,1.48,1.57,1.91,1.06.42,2.61.64,4.65.65,2.05-.01,3.6-.23,4.65-.65,1.06-.43,1.58-1.07,1.57-1.91.01-1.73-2.06-2.6-6.22-2.6Z"/>
  <path class="st1" d="M261.02,7.93c-.01,2.8.43,5.35,1.32,7.65.89,2.29,2.33,4.08,4.32,5.36l-2.43,3.45c-2.45-1.5-4.23-4-5.33-7.48-.57,1.86-1.34,3.48-2.32,4.87-.97,1.38-2.13,2.48-3.49,3.3l-2.66-3.31c2.16-1.31,3.75-3.18,4.77-5.62,1.02-2.44,1.54-5.1,1.55-7.98V2.87h4.27v5.06ZM277.97,31.27h-4.2V.21h4.2v31.06ZM271.51,29.9h-4.13v-15.65h-4v-3.59h4V.68h4.13v29.21Z"/>
  <path class="st1" d="M246.06,12.13h-21.77V1.3h4.41v7.31h17.36v3.52ZM249.2,18.9h-28.4v-3.52h28.4v3.52ZM246.23,30.62h-22.21v-9.26h4.44v5.74h17.77v3.52Z"/>
  <path class="st1" d="M215.13,12.34h4.55v3.69h-4.55v15.27h-4.41V.21h4.41v12.13ZM208.67,8.34h-18.28v-3.55h6.97V.72h4.44v4.07h6.87v3.55ZM199.58,10.11c1.5,0,2.86.31,4.07.94,1.22.63,2.17,1.5,2.85,2.63.69,1.12,1.04,2.39,1.04,3.81s-.35,2.7-1.04,3.83c-.68,1.13-1.63,2.01-2.84,2.65-1.21.63-2.57.94-4.08.94s-2.86-.31-4.07-.94c-1.2-.64-2.14-1.52-2.84-2.65-.68-1.13-1.03-2.4-1.03-3.83s.34-2.69,1.03-3.81c.69-1.13,1.64-2,2.84-2.63,1.21-.63,2.56-.94,4.07-.94ZM199.58,13.7c-.72,0-1.36.15-1.93.46-.56.3-.99.73-1.3,1.32-.31.57-.46,1.24-.46,2.02s.15,1.47.46,2.05c.31.57.74,1.01,1.3,1.32.57.31,1.21.46,1.93.46s1.37-.15,1.93-.46c.56-.31,1-.75,1.31-1.32.32-.58.48-1.26.48-2.05s-.16-1.45-.48-2.02c-.32-.58-.76-1.02-1.31-1.32-.56-.31-1.2-.46-1.93-.46Z"/>
  <path class="st1" d="M167.94,3.72c-.01,2.9-.14,5.54-.39,7.89-.25,2.35-.72,4.62-1.4,6.83-.68,2.2-1.65,4.28-2.89,6.25l-3.42-1.81c1.04-1.58,1.86-3.18,2.46-4.8.61-1.62,1.06-3.29,1.33-5.01.28-1.73.46-3.67.53-5.81h-3.3v-3.55h7.07ZM174.91,3.72c0,1.63-.02,3.09-.05,4.39-.03,1.29-.11,2.53-.22,3.74h2.6V.85h4.13v29.04h-4.13v-14.49h-3.06c-.33,2.02-.82,3.92-1.47,5.72-.64,1.79-1.48,3.49-2.51,5.11l-3.35-1.88c1.1-1.7,1.96-3.45,2.58-5.25.63-1.8,1.06-3.64,1.32-5.52.25-1.88.4-3.99.44-6.32h-2.32v-3.55h6.05ZM187.52,31.3h-4.2V.21h4.2v31.09Z"/>
  <path class="st1" d="M154.72,7.89h4.2v3.59h-4.2v7.45h-4.41V.21h4.41v7.69ZM154.72,30.96h-20.33v-10.66h20.33v10.66ZM138.73,27.47h11.69v-3.69h-11.69v3.69ZM148.54,6.49h-18.45v-3.49h7V0h4.44v3.01h7v3.49ZM139.31,7.45c1.5,0,2.84.23,4,.7,1.17.47,2.08,1.12,2.73,1.96.66.84.99,1.81.99,2.9s-.33,2.08-.99,2.92c-.65.84-1.56,1.5-2.73,1.96-1.17.46-2.51.68-4,.68s-2.84-.23-4.01-.68c-1.16-.46-2.07-1.1-2.73-1.95-.65-.85-.97-1.83-.97-2.94s.32-2.06.97-2.9c.66-.84,1.57-1.5,2.73-1.96,1.17-.47,2.51-.7,4.01-.7ZM139.31,10.7c-1.06,0-1.91.21-2.55.62-.63.4-.94.97-.94,1.71s.31,1.33.94,1.74c.64.41,1.49.62,2.55.62s1.88-.21,2.51-.62c.64-.41.96-.99.97-1.74-.01-.74-.33-1.31-.96-1.71-.63-.41-1.47-.62-2.53-.62Z"/>
  <path class="st1" d="M117.41,22.59h-4.44V.24h4.44v22.35ZM118.23,30.75h-21.66v-10.42h4.41v6.87h17.26v3.55ZM100.36,2.19c1.58,0,3.02.34,4.32,1.03,1.3.67,2.32,1.61,3.06,2.82.75,1.2,1.13,2.55,1.13,4.05s-.38,2.84-1.13,4.03c-.75,1.2-1.78,2.14-3.08,2.84-1.29.68-2.72,1.03-4.31,1.03s-3.05-.34-4.36-1.03c-1.3-.69-2.32-1.64-3.08-2.84-.74-1.2-1.11-2.54-1.11-4.03s.37-2.85,1.11-4.05c.75-1.21,1.78-2.15,3.08-2.82,1.31-.68,2.76-1.03,4.36-1.03ZM100.36,6.01c-.8-.01-1.52.15-2.17.48-.64.32-1.14.79-1.5,1.4-.35.62-.53,1.34-.53,2.19s.18,1.53.53,2.14c.36.6.87,1.07,1.5,1.4.65.32,1.37.48,2.17.5.8-.01,1.51-.18,2.14-.5.64-.33,1.13-.8,1.49-1.4.36-.6.55-1.32.55-2.14s-.18-1.57-.55-2.19c-.35-.62-.85-1.08-1.49-1.4-.63-.33-1.34-.49-2.14-.48Z"/>
  <path class="st1" d="M66.84,5.74h6.08V1.78h4.34v5.5h5.64V.21h4.48v17.02h-4.48v-6.36h-5.64v5.43h-14.83V1.78h4.41v3.96ZM72.92,12.78v-3.69h-6.08v3.69h6.08ZM70.94,21.36h12.03v-2.84h4.37v12.37h-20.78v-12.37h4.37v2.84ZM82.96,27.4v-2.63h-12.03v2.63h12.03Z"/>
  <path class="st1" d="M55.53,8.71h4.2v3.59h-4.2v10.35h-4.41V.21h4.41v8.51ZM46.09,6.18h-9.64v7.82c2.93-.02,5.27-.1,7.02-.22,1.75-.13,3.47-.36,5.14-.7l.44,3.49c-1.86.41-3.8.68-5.84.82-2.04.14-4.9.2-8.58.2h-2.6V2.67h14.04v3.52ZM56.69,30.75h-21.32v-10.46h4.41v6.9h16.91v3.55Z"/>
  <path class="st1" d="M12.13,7.14c.01,1.91.28,3.76.8,5.55.54,1.78,1.34,3.38,2.43,4.8,1.09,1.42,2.44,2.53,4.05,3.31l-2.67,3.52c-1.59-.81-2.96-1.94-4.1-3.38-1.13-1.45-2.03-3.14-2.7-5.09-.69,2.07-1.66,3.89-2.89,5.45-1.22,1.55-2.68,2.74-4.39,3.57l-2.67-3.55c1.69-.79,3.11-1.91,4.27-3.38,1.16-1.48,2.03-3.15,2.6-5.02.57-1.87.85-3.79.85-5.77V2.6h4.41v4.54ZM25.18,12.16h4.58v3.69h-4.58v15.44h-4.41V.21h4.41v11.96Z"/>
  <path class="st0" d="M301.71,43.9h-5.95c.22,1.64.92,3.12,2.1,4.45,1.19,1.32,2.91,2.29,5.16,2.91l-2.48,3.89c-1.71-.47-3.18-1.19-4.4-2.15-1.22-.97-2.2-2.13-2.94-3.47-.75,1.47-1.75,2.73-3.03,3.8-1.27,1.05-2.81,1.85-4.63,2.37l-2.48-3.92c2.32-.65,4.08-1.69,5.3-3.1,1.22-1.42,1.93-3.02,2.13-4.78h-6.09v-3.92h17.3v3.92ZM309.62,55.49h-5.06v-17.09h5.06v17.09ZM293.22,59.37h11.38v-2.58h5.02v12.83h-21.36v-12.83h4.95v2.58ZM304.6,65.6v-2.34h-11.38v2.34h11.38Z"/>
  <path class="st0" d="M254.35,40.39c1.65,0,3.15.34,4.49,1.01,1.35.68,2.41,1.62,3.18,2.82.78,1.2,1.17,2.55,1.17,4.04s-.39,2.85-1.17,4.06c-.77,1.2-1.82,2.15-3.16,2.84-1.34.68-2.84,1.01-4.51,1.01s-3.15-.34-4.51-1.01c-1.34-.69-2.4-1.63-3.18-2.84-.77-1.2-1.15-2.56-1.15-4.06s.38-2.83,1.15-4.02c.78-1.2,1.84-2.14,3.18-2.82,1.35-.69,2.85-1.03,4.51-1.03ZM254.39,44.72c-.76,0-1.44.14-2.05.41-.6.26-1.07.66-1.41,1.2-.34.53-.51,1.17-.5,1.93,0,.75.17,1.39.5,1.94.34.54.81.95,1.39,1.24.59.29,1.25.43,1.99.43s1.42-.14,2.01-.41c.6-.29,1.07-.7,1.41-1.24.34-.55.52-1.2.53-1.96,0-.75-.17-1.38-.52-1.91-.33-.54-.79-.95-1.38-1.22-.58-.28-1.25-.41-1.99-.41ZM270.86,70h-4.99v-31.68h4.99v31.68ZM244.27,59.72c3.9-.01,7.46-.08,10.68-.21,3.23-.13,6.31-.4,9.24-.83l.38,3.61c-2.89.57-5.9.96-9.03,1.15-3.12.19-6.37.29-9.75.29h-.93l-.59-4.02Z"/>
  <path class="st0" d="M225.67,46.54c0,1.65.27,3.3.81,4.95s1.38,3.16,2.51,4.54c1.15,1.38,2.57,2.45,4.28,3.23l-2.75,3.96c-1.69-.76-3.14-1.83-4.37-3.23-1.22-1.41-2.18-3.05-2.91-4.92-.71,2.06-1.69,3.88-2.94,5.43-1.24,1.55-2.74,2.73-4.51,3.54l-2.82-3.99c1.73-.8,3.17-1.93,4.32-3.37,1.15-1.46,1.99-3.06,2.53-4.82.55-1.77.83-3.54.83-5.33v-1.1h-6.43v-4.13h17.58v4.13h-6.12v1.1ZM238.77,50.19h4.44v4.13h-4.44v15.61h-5.02v-31.54h5.02v11.8Z"/>
  <path class="st0" d="M212.12,56.93h-28.79v-3.96h11.86v-2.3h-8.46v-10.97h21.98v3.92h-16.96v3.13h17.09v3.92h-8.6v2.3h11.87v3.96ZM197.6,58.27c2.29,0,4.27.23,5.92.71,1.66.46,2.93,1.13,3.82,2.01.89.87,1.34,1.93,1.34,3.16s-.45,2.28-1.34,3.15c-.88.87-2.16,1.54-3.82,1.99-1.65.47-3.62.71-5.92.71s-4.29-.24-5.97-.71c-1.66-.46-2.93-1.12-3.82-1.99-.88-.87-1.32-1.92-1.32-3.15s.44-2.29,1.32-3.16c.88-.88,2.16-1.55,3.82-2.01,1.67-.47,3.66-.71,5.97-.71ZM197.43,62.09c-1.99,0-3.47.17-4.42.52-.95.33-1.43.86-1.43,1.58s.5,1.22,1.5,1.53c1,.31,2.56.46,4.69.46,1.98,0,3.45-.16,4.39-.48.95-.33,1.43-.85,1.43-1.55,0-.73-.5-1.26-1.5-1.58-.99-.32-2.54-.48-4.66-.48Z"/>
  <path class="st0" d="M178.69,55.66h-8.94v6.84h11.93v4.06h-28.82v-4.06h11.9v-6.84h-8.77v-15h5.06v11.04h17.64v3.96Z"/>
  <path class="st0" d="M148.97,60.95h-5.06v-22.56h5.06v22.56ZM149.73,69.42h-22.18v-10.73h5.02v6.71h17.16v4.02ZM131.57,40.32c1.62,0,3.09.35,4.42,1.05,1.34.69,2.4,1.65,3.16,2.89.77,1.23,1.15,2.61,1.15,4.14s-.38,2.91-1.15,4.14c-.77,1.23-1.82,2.19-3.16,2.89-1.33.7-2.8,1.05-4.42,1.05s-3.11-.35-4.45-1.05c-1.34-.7-2.4-1.66-3.18-2.89-.78-1.24-1.17-2.62-1.17-4.14s.39-2.92,1.17-4.14c.78-1.24,1.83-2.2,3.16-2.89,1.34-.7,2.83-1.05,4.47-1.05ZM131.57,44.65c-.73,0-1.39.15-1.98.45-.59.29-1.04.71-1.38,1.27-.33.56-.5,1.24-.5,2.03s.17,1.43.5,1.99c.33.55.78.97,1.36,1.26.57.29,1.23.43,1.96.43s1.39-.14,1.98-.41c.58-.29,1.04-.71,1.38-1.26.33-.56.5-1.23.5-2.01s-.17-1.47-.5-2.03-.79-.99-1.38-1.27c-.57-.3-1.22-.45-1.94-.45Z"/>
  <path class="st0" d="M117.5,42.24c0,1.59-.03,3-.1,4.21-.06,1.22-.22,2.53-.48,3.94h3.89v4.02h-11.93v4.02h8.67v11.49h-5.06v-7.53h-17.61v-3.96h8.98v-4.02h-11.87v-4.02h19.91c.24-1.22.41-2.36.5-3.42.09-1.08.14-2.2.15-3.35h-17.06v-3.96h22.01v2.58Z"/>
  <path class="st0" d="M71.72,40.15c1.65,0,3.15.34,4.49,1.01,1.35.68,2.41,1.62,3.18,2.82.78,1.19,1.17,2.54,1.17,4.04,0,1.23-.27,2.36-.81,3.41-.53,1.03-1.27,1.91-2.24,2.63-.95.72-2.05,1.23-3.28,1.53v3.89c2.79-.17,5.23-.41,7.33-.72l.38,3.61c-3.03.6-6.14.99-9.36,1.17-3.2.18-6.65.28-10.35.28l-.58-4.02c2.82,0,5.33-.03,7.53-.1v-4.09c-1.23-.31-2.32-.83-3.27-1.55-.95-.72-1.7-1.6-2.24-2.63-.53-1.03-.79-2.16-.79-3.39,0-1.5.38-2.85,1.15-4.04.78-1.2,1.84-2.14,3.18-2.82,1.35-.68,2.85-1.01,4.51-1.01ZM71.72,44.41c-.75,0-1.42.14-2.01.43-.6.28-1.07.68-1.41,1.22-.33.54-.5,1.19-.5,1.96s.17,1.4.5,1.94c.34.54.81.95,1.41,1.22.6.28,1.27.41,2.01.41s1.41-.14,1.99-.41c.6-.28,1.07-.68,1.41-1.22.34-.54.52-1.19.52-1.94s-.17-1.42-.52-1.96c-.34-.54-.81-.95-1.41-1.22-.58-.29-1.25-.43-1.99-.43ZM88.23,70h-4.99v-31.68h4.99v31.68Z"/>
  <path class="st0" d="M43.14,43.59c0,2.12.57,4.03,1.7,5.73,1.15,1.69,2.95,2.92,5.42,3.7l-2.58,3.92c-1.65-.54-3.07-1.31-4.25-2.32-1.17-1.02-2.1-2.24-2.8-3.65-.73,1.54-1.72,2.86-2.96,3.97-1.24,1.11-2.74,1.96-4.51,2.55l-2.68-3.92c1.77-.54,3.21-1.32,4.33-2.36,1.12-1.04,1.94-2.22,2.44-3.53.52-1.31.78-2.68.79-4.13v-3.27h5.09v3.3ZM56.21,47.37h4.13v4.09h-4.13v9.91h-5.02v-23.01h5.02v9.01ZM57.28,69.42h-21.77v-10.25h5.06v6.23h16.72v4.02Z"/>
  <path class="st0" d="M29.73,46.06h-3.96v2.82h3.96v4.09h-3.96v3.71h-5.02v-18.3h5.02v3.58h3.96v4.09ZM9.5,40.01c1.63,0,3.11.34,4.44,1.01,1.33.66,2.38,1.59,3.15,2.77.77,1.17,1.15,2.49,1.15,3.96s-.38,2.77-1.15,3.96c-.76,1.18-1.81,2.11-3.15,2.79-1.33.66-2.81,1-4.44,1s-3.12-.33-4.45-1c-1.33-.68-2.38-1.61-3.15-2.79-.76-1.18-1.13-2.5-1.13-3.96s.38-2.79,1.13-3.96c.77-1.18,1.82-2.1,3.15-2.77,1.33-.68,2.81-1.01,4.45-1.01ZM9.5,44.24c-.73,0-1.39.14-1.98.41-.58.28-1.04.68-1.38,1.2-.33.53-.5,1.16-.5,1.89,0,1.11.36,1.97,1.07,2.58.72.61,1.65.92,2.79.93,1.12-.01,2.04-.32,2.75-.93.72-.62,1.08-1.48,1.07-2.58,0-.73-.17-1.36-.5-1.89-.32-.53-.77-.93-1.36-1.2-.57-.28-1.23-.41-1.96-.41ZM15.32,57.27c2.2,0,4.12.25,5.74.76,1.64.5,2.9,1.23,3.78,2.18.89.95,1.34,2.08,1.34,3.39s-.45,2.45-1.34,3.41c-.88.95-2.14,1.68-3.78,2.18-1.63.52-3.54.77-5.74.77s-4.12-.26-5.76-.77c-1.63-.5-2.89-1.23-3.78-2.18-.88-.95-1.32-2.09-1.32-3.41s.44-2.44,1.32-3.39c.89-.95,2.16-1.68,3.8-2.18,1.64-.5,3.55-.76,5.74-.76ZM15.32,61.2c-1.96.01-3.43.21-4.4.6-.97.38-1.46.98-1.44,1.81-.01.83.47,1.44,1.44,1.84.97.39,2.44.59,4.4.6,1.97-.01,3.45-.21,4.42-.6.97-.39,1.46-1,1.46-1.84s-.49-1.43-1.46-1.81c-.96-.39-2.44-.59-4.42-.6Z"/>
</svg>